<svg width="648" height="633" viewBox="0 0 648 633" fill="none" xmlns="http://www.w3.org/2000/svg">
<g clip-path="url(#clip0_130_101)">
<path d="M411.146 142.174H236.636C232.66 142.179 228.847 143.761 226.035 146.573C223.223 149.385 221.641 153.197 221.636 157.174V545.024L219.636 545.634L176.826 558.744C174.797 559.363 172.606 559.151 170.733 558.155C168.86 557.16 167.459 555.462 166.837 553.434L39.4962 137.484C38.8765 135.455 39.0877 133.263 40.0834 131.39C41.0791 129.517 42.7778 128.115 44.8062 127.494L110.776 107.294L302.026 48.7539L367.996 28.5539C369 28.2449 370.055 28.1369 371.101 28.2362C372.147 28.3354 373.162 28.6398 374.09 29.1321C375.018 29.6244 375.84 30.2948 376.509 31.1051C377.177 31.9153 377.679 32.8494 377.986 33.8539L410.536 140.174L411.146 142.174Z" fill="#F2F2F2"/>
<path d="M449.226 140.174L409.996 12.0337C409.343 9.8987 408.276 7.91318 406.856 6.19065C405.436 4.46813 403.69 3.04236 401.718 1.99482C399.747 0.947279 397.588 0.298483 395.366 0.0855347C393.143 -0.127414 390.901 0.0996565 388.766 0.753748L296.016 29.1437L104.776 87.6938L12.0264 116.094C7.71776 117.417 4.11004 120.395 1.99518 124.376C-0.119678 128.356 -0.568904 133.013 0.746128 137.324L134.826 575.254C135.894 578.734 138.05 581.78 140.976 583.945C143.903 586.11 147.446 587.28 151.086 587.284C152.771 587.285 154.447 587.032 156.056 586.534L219.636 567.074L221.636 566.454V564.364L219.636 564.974L155.466 584.624C151.663 585.783 147.555 585.387 144.044 583.521C140.533 581.656 137.905 578.474 136.736 574.674L2.66654 136.734C2.08763 134.851 1.88586 132.872 2.07279 130.911C2.25971 128.95 2.83164 127.045 3.75586 125.305C4.68008 123.565 5.93844 122.024 7.45884 120.772C8.97923 119.519 10.7318 118.578 12.6162 118.004L105.366 89.6038L296.606 31.0638L389.356 2.66377C390.786 2.22757 392.272 2.00516 393.766 2.00376C396.973 2.01096 400.094 3.04492 402.671 4.95419C405.248 6.86345 407.146 9.5477 408.086 12.6138L447.136 140.174L447.756 142.174H449.836L449.226 140.174Z" fill="#FF6584"/>
<path d="M122.681 127.821C120.754 127.819 118.877 127.2 117.327 126.055C115.778 124.909 114.636 123.296 114.07 121.454L101.189 79.3822C100.843 78.2521 100.723 77.0649 100.836 75.8884C100.949 74.7118 101.292 73.569 101.846 72.5252C102.401 71.4814 103.156 70.5571 104.067 69.805C104.979 69.053 106.03 68.4879 107.16 68.142L283.099 14.2782C285.382 13.5818 287.847 13.8193 289.955 14.9387C292.062 16.0581 293.639 17.9679 294.34 20.2489L307.221 62.3212C307.917 64.6036 307.679 67.0689 306.559 69.1762C305.44 71.2835 303.531 72.8607 301.25 73.5619L125.31 127.426C124.458 127.687 123.572 127.82 122.681 127.821V127.821Z" fill="#DE3361"/>
<path d="M190.154 44.9546C201.199 44.9546 210.154 36.0003 210.154 24.9546C210.154 13.9089 201.199 4.95459 190.154 4.95459C179.108 4.95459 170.154 13.9089 170.154 24.9546C170.154 36.0003 179.108 44.9546 190.154 44.9546Z" fill="#DE3361"/>
<path d="M190.154 37.6193C197.148 37.6193 202.818 31.9491 202.818 24.9547C202.818 17.9602 197.148 12.29 190.154 12.29C183.159 12.29 177.489 17.9602 177.489 24.9547C177.489 31.9491 183.159 37.6193 190.154 37.6193Z" fill="white"/>
<path d="M602.636 582.174H264.636C262.383 582.171 260.222 581.275 258.629 579.681C257.035 578.088 256.139 575.927 256.136 573.674V168.674C256.139 166.42 257.035 164.26 258.629 162.666C260.222 161.073 262.383 160.176 264.636 160.174H602.636C604.89 160.176 607.05 161.073 608.644 162.666C610.237 164.26 611.134 166.42 611.136 168.674V573.674C611.134 575.927 610.237 578.088 608.644 579.681C607.05 581.275 604.89 582.171 602.636 582.174V582.174Z" fill="#E6E6E6"/>
<path d="M447.136 140.174H236.636C232.13 140.18 227.809 141.973 224.622 145.16C221.436 148.347 219.643 152.667 219.636 157.174V564.974L221.636 564.364V157.174C221.641 153.197 223.223 149.385 226.035 146.573C228.847 143.761 232.659 142.179 236.636 142.174H447.756L447.136 140.174ZM630.636 140.174H236.636C232.13 140.18 227.809 141.973 224.622 145.16C221.436 148.347 219.643 152.667 219.636 157.174V615.174C219.643 619.681 221.436 624.001 224.622 627.188C227.809 630.374 232.13 632.167 236.636 632.174H630.636C635.143 632.167 639.463 630.374 642.65 627.188C645.837 624.001 647.63 619.681 647.636 615.174V157.174C647.63 152.667 645.837 148.347 642.65 145.16C639.463 141.973 635.143 140.18 630.636 140.174V140.174ZM645.636 615.174C645.631 619.151 644.049 622.963 641.237 625.775C638.425 628.587 634.613 630.169 630.636 630.174H236.636C232.659 630.169 228.847 628.587 226.035 625.775C223.223 622.963 221.641 619.151 221.636 615.174V157.174C221.641 153.197 223.223 149.385 226.035 146.573C228.847 143.761 232.659 142.179 236.636 142.174H630.636C634.613 142.179 638.425 143.761 641.237 146.573C644.049 149.385 645.631 153.197 645.636 157.174V615.174Z" fill="#FF6584"/>
<path d="M525.636 184.174H341.636C339.25 184.171 336.963 183.222 335.275 181.535C333.588 179.848 332.639 177.56 332.636 175.174V131.174C332.639 128.788 333.588 126.5 335.276 124.813C336.963 123.126 339.25 122.177 341.636 122.174H525.636C528.023 122.177 530.31 123.126 531.997 124.813C533.685 126.5 534.634 128.788 534.636 131.174V175.174C534.634 177.56 533.685 179.848 531.997 181.535C530.31 183.222 528.023 184.171 525.636 184.174V184.174Z" fill="#DE3361"/>
<path d="M433.636 125.174C444.682 125.174 453.636 116.22 453.636 105.174C453.636 94.1281 444.682 85.1738 433.636 85.1738C422.591 85.1738 413.636 94.1281 413.636 105.174C413.636 116.22 422.591 125.174 433.636 125.174Z" fill="#DE3361"/>
<path d="M433.636 117.356C440.364 117.356 445.818 111.902 445.818 105.174C445.818 98.446 440.364 92.9919 433.636 92.9919C426.908 92.9919 421.454 98.446 421.454 105.174C421.454 111.902 426.908 117.356 433.636 117.356Z" fill="white"/>
</g>
<defs>
<clipPath id="clip0_130_101">
<rect width="647.636" height="632.174" fill="white"/>
</clipPath>
</defs>
</svg>
